<svg xmlns="http://www.w3.org/2000/svg" version="1.1" xmlns:xlink="http://www.w3.org/1999/xlink" xmlns:svgjs="http://svgjs.com/svgjs" width="1920" height="1080" preserveAspectRatio="none" viewBox="0 0 1920 1080"><g mask="url(&quot;#SvgjsMask1062&quot;)" fill="none"><path d="M676.529,652.531C711.72,653.32,740.593,628.682,759.059,598.715C778.682,566.872,792.206,527.471,773.584,495.032C754.907,462.498,714.042,454.726,676.529,454.956C639.522,455.183,599.212,463.708,581.511,496.208C564.305,527.799,581.484,564.413,600.169,595.153C617.893,624.313,642.414,651.766,676.529,652.531" fill="rgba(16, 111, 219, 0.5)" class="triangle-float3"></path><path d="M1259.222,870.718C1295.229,869.834,1334.613,866.541,1353.919,836.134C1374.305,804.026,1366.483,763.42,1348.69,729.806C1329.436,693.432,1300.376,657.683,1259.222,657.238C1217.543,656.788,1186.736,691.485,1166.339,727.835C1146.476,763.234,1133.991,806.957,1156.114,840.989C1177.009,873.132,1220.897,871.659,1259.222,870.718" fill="rgba(16, 111, 219, 0.5)" class="triangle-float3"></path><path d="M189.72,1157.33C270.711,1158.69,346.236,1118.316,389.264,1049.687C435.269,976.308,450.799,883.739,408.705,808.049C365.579,730.503,278.451,690.883,189.72,690.88C100.984,690.877,12.534,729.774,-29.289,808.036C-69.221,882.758,-43.554,971.396,1.452,1043.176C43.238,1109.82,111.071,1156.01,189.72,1157.33" fill="rgba(16, 111, 219, 0.5)" class="triangle-float3"></path><path d="M1253.431,1107.278C1367.426,1106.509,1482.983,1059.446,1535.615,958.325C1585.28,862.904,1540.897,753.633,1485.489,661.428C1432.259,572.847,1356.563,495.347,1253.431,488.737C1138.733,481.386,1023.28,529.855,963.419,627.968C901.23,729.896,902.764,860.019,964.576,962.177C1024.361,1060.985,1137.947,1108.057,1253.431,1107.278" fill="rgba(16, 111, 219, 0.5)" class="triangle-float3"></path><path d="M769.715,673.963C852.65,678.53,934.295,634.826,973.146,561.411C1009.984,491.799,988.08,408.688,944.978,342.771C906.233,283.516,840.508,249.478,769.715,250.293C700.387,251.092,636.004,286.703,601.308,346.73C566.583,406.807,569.959,479.256,601.712,540.956C636.743,609.026,693.276,669.754,769.715,673.963" fill="rgba(16, 111, 219, 0.5)" class="triangle-float2"></path><path d="M150.311,323.233C224.688,327.076,296.792,283.551,329.445,216.615C359.1,155.824,326.847,89.372,292.945,30.843C259.161,-27.481,217.713,-92.45,150.311,-92.642C82.715,-92.835,37.078,-30.139,6.261,30.024C-21.378,83.983,-26.126,145.21,0.607,199.624C31.191,261.877,81.043,319.654,150.311,323.233" fill="rgba(16, 111, 219, 0.5)" class="triangle-float2"></path><path d="M1719.571,941.373C1837.115,949.19,1955.327,885.697,2007.039,779.85C2054.344,683.024,1998.639,577.158,1942.428,485.215C1889.558,398.737,1820.925,308.671,1719.571,309.645C1619.295,310.609,1550.502,400.575,1504.012,489.428C1461.537,570.606,1452.045,662.872,1491.487,745.566C1537.721,842.501,1612.412,934.247,1719.571,941.373" fill="rgba(16, 111, 219, 0.5)" class="triangle-float2"></path></g><defs><mask id="SvgjsMask1062"><rect width="1920" height="1080" fill="#ffffff"></rect></mask><style>
            @keyframes float1 {
                0%{transform: translate(0, 0)}
                50%{transform: translate(-10px, 0)}
                100%{transform: translate(0, 0)}
            }

            .triangle-float1 {
                animation: float1 5s infinite;
            }

            @keyframes float2 {
                0%{transform: translate(0, 0)}
                50%{transform: translate(-5px, -5px)}
                100%{transform: translate(0, 0)}
            }

            .triangle-float2 {
                animation: float2 4s infinite;
            }

            @keyframes float3 {
                0%{transform: translate(0, 0)}
                50%{transform: translate(0, -10px)}
                100%{transform: translate(0, 0)}
            }

            .triangle-float3 {
                animation: float3 6s infinite;
            }
        </style></defs></svg>