<svg xmlns="http://www.w3.org/2000/svg" version="1.1" xmlns:xlink="http://www.w3.org/1999/xlink" xmlns:svgjs="http://svgjs.com/svgjs" width="1440" height="560" preserveAspectRatio="none" viewBox="0 0 1440 560"><g mask="url(&quot;#SvgjsMask1498&quot;)" fill="none"><path d="M125.35,318.912C170.903,316.438,208.418,287.469,231.699,248.236C255.558,208.028,268.432,158.21,244.569,118.004C221.069,78.409,171.337,66.754,125.35,69.049C83.68,71.129,48.309,94.284,25.106,128.959C-1.717,169.045,-25.593,218.33,-3.082,260.986C20.411,305.503,75.088,321.641,125.35,318.912" fill="rgba(28, 83, 142, 0.4)" class="triangle-float3"></path><path d="M1289.7297938836932 442.14125972441894L1249.0736143828842 368.7955703580724 1159.3831700837688 466.45268429245925z" fill="rgba(28, 83, 142, 0.4)" class="triangle-float3"></path><path d="M408.643,509.441C448.799,508.89,482.368,484.202,504.461,450.665C529.602,412.502,553.869,364.247,529.943,325.311C506.545,287.234,453.335,294.575,408.643,294.735C364.391,294.893,312.515,288.79,288.835,326.173C264.241,364.999,283.014,414.888,308.163,453.357C330.658,487.767,367.536,510.005,408.643,509.441" fill="rgba(28, 83, 142, 0.4)" class="triangle-float3"></path><path d="M1028.1609990374482 436.0058307875826L1121.9955964027833 488.019197446614 1080.1743656964795 342.1712334222474z" fill="rgba(28, 83, 142, 0.4)" class="triangle-float3"></path><path d="M31.12 430.52 a94.61 94.61 0 1 0 189.22 0 a94.61 94.61 0 1 0 -189.22 0z" fill="rgba(28, 83, 142, 0.4)" class="triangle-float3"></path><path d="M306.736,175.285C337.062,175.054,367.755,163.117,382.227,136.466C396.184,110.762,387.378,80.077,371.915,55.25C357.472,32.061,333.983,17.241,306.736,15.263C275.078,12.965,239.799,17.615,222.814,44.429C204.954,72.625,211.208,109.536,229.226,137.632C245.846,163.547,275.951,175.52,306.736,175.285" fill="rgba(28, 83, 142, 0.4)" class="triangle-float1"></path><path d="M516.45 450.14 a165.27 165.27 0 1 0 330.54 0 a165.27 165.27 0 1 0 -330.54 0z" fill="rgba(28, 83, 142, 0.4)" class="triangle-float1"></path><path d="M829.329,620.931C874.574,618.792,913.506,593.507,937.786,555.268C964.277,513.546,982.034,461.547,957.92,418.407C933.389,374.521,879.439,357.141,829.329,361.238C785.628,364.811,755.818,399.606,732.638,436.825C707.463,477.246,679.388,524.275,701.53,566.434C724.609,610.378,779.748,623.274,829.329,620.931" fill="rgba(28, 83, 142, 0.4)" class="triangle-float2"></path><path d="M1126.22 388.79 a105.37 105.37 0 1 0 210.74 0 a105.37 105.37 0 1 0 -210.74 0z" fill="rgba(28, 83, 142, 0.4)" class="triangle-float1"></path></g><defs><mask id="SvgjsMask1498"><rect width="1440" height="560" fill="#ffffff"></rect></mask><style>
            @keyframes float1 {
                0%{transform: translate(0, 0)}
                50%{transform: translate(-10px, 0)}
                100%{transform: translate(0, 0)}
            }

            .triangle-float1 {
                animation: float1 5s infinite;
            }

            @keyframes float2 {
                0%{transform: translate(0, 0)}
                50%{transform: translate(-5px, -5px)}
                100%{transform: translate(0, 0)}
            }

            .triangle-float2 {
                animation: float2 4s infinite;
            }

            @keyframes float3 {
                0%{transform: translate(0, 0)}
                50%{transform: translate(0, -10px)}
                100%{transform: translate(0, 0)}
            }

            .triangle-float3 {
                animation: float3 6s infinite;
            }
        </style></defs></svg>